<?xml version="1.0" encoding="utf-8"?>
<!-- Generator: Adobe Illustrator 18.0.0, SVG Export Plug-In . SVG Version: 6.00 Build 0)  -->
<!DOCTYPE svg PUBLIC "-//W3C//DTD SVG 1.1//EN" "http://www.w3.org/Graphics/SVG/1.1/DTD/svg11.dtd">
<svg version="1.1" id="Capa_1" xmlns="http://www.w3.org/2000/svg" xmlns:xlink="http://www.w3.org/1999/xlink" x="0px" y="0px"
	 viewBox="0 0 512 512" enable-background="new 0 0 512 512" xml:space="preserve">
<g>
	<path fill="#D80027" d="M352.8,256.7H290c-3.2-12.3-12.8-22-25.2-25.2v-89.3c0-4.9-3.9-8.8-8.8-8.8s-8.8,3.9-8.8,8.8v89.3
		c-15.1,3.9-26.4,17.6-26.4,34c0,19.4,15.8,35.2,35.2,35.2c16.4,0,30-11.3,34-26.4h62.9c4.9,0,8.8-3.9,8.8-8.8
		S357.7,256.7,352.8,256.7z M256,283.1c-9.7,0-17.6-7.9-17.6-17.6s7.9-17.6,17.6-17.6s17.6,7.9,17.6,17.6S265.7,283.1,256,283.1z"/>
	<path fill="#D80027" d="M441.9,86l36.1,36.1c1.7,1.7,3.9,2.6,6.2,2.6s4.6-0.9,6.2-2.6c27.9-27.9,27.9-73.2,0-101.1
		C462.5-7,417.1-7,389.3,20.9c-1.7,1.7-2.6,3.9-2.6,6.2s0.9,4.6,2.6,6.2l40.2,40.2l-15,15C372.4,50.8,316.8,27.8,256,27.8
		s-116.4,23-158.5,60.7l-15-15l40.2-40.2c1.7-1.7,2.6-3.9,2.6-6.2s-0.9-4.6-2.6-6.2C94.9-7,49.5-7,21.6,20.9s-27.9,73.2,0,101.1
		c1.7,1.7,3.9,2.6,6.2,2.6s4.6-0.9,6.2-2.6L70.1,86l14.8,14.8c-41.2,42.8-66.6,100.8-66.6,164.8c0,87.1,47.2,163.4,117.3,204.8
		L108.9,497c-3.4,3.4-3.4,9,0,12.4c1.7,1.7,4,2.6,6.2,2.6s4.5-0.9,6.2-2.6l30.4-30.4c31.5,15.4,66.9,24.2,104.3,24.2
		s72.8-8.7,104.3-24.2l30.4,30.4c1.7,1.7,4,2.6,6.2,2.6c2.3,0,4.5-0.9,6.2-2.6c3.4-3.4,3.4-9,0-12.4l-26.7-26.7
		c70.1-41.4,117.3-117.7,117.3-204.8c0-63.9-25.4-122-66.6-164.8L441.9,86z M477.9,33.4c18.9,18.9,20.8,48.4,5.7,69.5l-75.2-75.2
		C429.5,12.6,459,14.5,477.9,33.4z M28.4,102.8c-15.1-21-13.2-50.6,5.7-69.5s48.4-20.8,69.5-5.7L28.4,102.8z M256,485.6
		c-121.4,0-220.1-98.7-220.1-220.1S134.6,45.4,256,45.4s220.1,98.7,220.1,220.1S377.4,485.6,256,485.6z"/>
	<path fill="#D80027" d="M256,88.3c4.9,0,8.8-3.9,8.8-8.8v-8.8c0-4.9-3.9-8.8-8.8-8.8c-4.9,0-8.8,3.9-8.8,8.8v8.8
		C247.2,84.4,251.1,88.3,256,88.3z"/>
	<path fill="#D80027" d="M256,440.5c-4.9,0-8.8,3.9-8.8,8.8v8.8c0,4.9,3.9,8.8,8.8,8.8c4.9,0,8.8-3.9,8.8-8.8v-8.8
		C264.8,444.4,260.9,440.5,256,440.5z"/>
	<path fill="#D80027" d="M440.9,273.2h8.8c4.9,0,8.8-3.9,8.8-8.8s-3.9-8.8-8.8-8.8h-8.8c-4.9,0-8.8,3.9-8.8,8.8
		S436,273.2,440.9,273.2z"/>
	<path fill="#D80027" d="M71.1,255.6h-8.8c-4.9,0-8.8,3.9-8.8,8.8s3.9,8.8,8.8,8.8h8.8c4.9,0,8.8-3.9,8.8-8.8S76,255.6,71.1,255.6z"
		/>
	<path fill="#D80027" d="M386.7,121.2l-6.2,6.2c-3.4,3.4-3.4,9,0,12.4c1.7,1.7,4,2.6,6.2,2.6c2.3,0,4.5-0.9,6.2-2.6l6.2-6.2
		c3.4-3.4,3.4-9,0-12.4C395.7,117.8,390.2,117.8,386.7,121.2z"/>
	<path fill="#D80027" d="M119,388.9l-6.2,6.2c-3.4,3.4-3.4,9,0,12.4c1.7,1.7,4,2.6,6.2,2.6c2.3,0,4.5-0.9,6.2-2.6l6.2-6.2
		c3.4-3.4,3.4-9,0-12.4S122.5,385.5,119,388.9z"/>
	<path fill="#D80027" d="M393,388.9c-3.4-3.4-9-3.4-12.4,0c-3.4,3.4-3.4,9,0,12.4l6.2,6.2c1.7,1.7,4,2.6,6.2,2.6
		c2.3,0,4.5-0.9,6.2-2.6c3.4-3.4,3.4-9,0-12.4L393,388.9z"/>
	<path fill="#D80027" d="M125.3,121.2c-3.4-3.4-9-3.4-12.4,0s-3.4,9,0,12.4l6.2,6.2c1.7,1.7,4,2.6,6.2,2.6s4.5-0.9,6.2-2.6
		c3.4-3.4,3.4-9,0-12.4L125.3,121.2z"/>
</g>
</svg>
