<?xml version="1.0" encoding="utf-8"?>
<!-- Generator: Adobe Illustrator 18.0.0, SVG Export Plug-In . SVG Version: 6.00 Build 0)  -->
<!DOCTYPE svg PUBLIC "-//W3C//DTD SVG 1.1//EN" "http://www.w3.org/Graphics/SVG/1.1/DTD/svg11.dtd">
<svg version="1.1" id="Capa_1" xmlns="http://www.w3.org/2000/svg" xmlns:xlink="http://www.w3.org/1999/xlink" x="0px" y="0px"
	 viewBox="0 0 512 512" enable-background="new 0 0 512 512" xml:space="preserve">
<g>
	<path fill="#D80027" d="M511.2,159.9C503.7,77.7,445.5,18,372.6,18c-48.5,0-93,26.1-118,68c-24.8-42.4-67.4-68-115.2-68
		C66.6,18,8.3,77.7,0.9,159.9c-0.6,3.6-3,22.8,4.4,53.9c10.6,45,35.1,85.9,70.9,118.3L254.5,494l181.4-161.9
		c35.8-32.4,60.3-73.3,70.9-118.3C514.2,182.7,511.7,163.6,511.2,159.9z M487.6,209.4c-9.7,41.1-32.1,78.5-64.9,108.2l-168.1,150
		l-165.3-150c-32.8-29.7-55.2-67.1-64.9-108.2c-7-29.5-4.1-46.2-4.1-46.3l0.1-1C26.8,90,76.9,37.7,139.4,37.7
		c46.2,0,86.8,28.4,106.1,74l9.1,21.5l9.1-21.5c19-44.9,61.7-74,109-74c62.5,0,112.6,52.3,119.1,125.3
		C491.7,163.2,494.6,179.8,487.6,209.4z"/>
</g>
</svg>
