<?xml version="1.0" encoding="utf-8"?>
<!-- Generator: Adobe Illustrator 18.0.0, SVG Export Plug-In . SVG Version: 6.00 Build 0)  -->
<!DOCTYPE svg PUBLIC "-//W3C//DTD SVG 1.1//EN" "http://www.w3.org/Graphics/SVG/1.1/DTD/svg11.dtd">
<svg version="1.1" id="Capa_1" xmlns="http://www.w3.org/2000/svg" xmlns:xlink="http://www.w3.org/1999/xlink" x="0px" y="0px"
	 viewBox="0 0 512 512" enable-background="new 0 0 512 512" xml:space="preserve">
<g>
	<path fill="#D80027" d="M170.7,418.1c-18.8,0-34.1,15.3-34.1,34.1s15.3,34.1,34.1,34.1s34.1-15.3,34.1-34.1
		S189.5,418.1,170.7,418.1z M170.7,469.3c-9.4,0-17.1-7.7-17.1-17.1s7.7-17.1,17.1-17.1c9.4,0,17.1,7.7,17.1,17.1
		S180.1,469.3,170.7,469.3z"/>
	<path fill="#D80027" d="M145.1,42.7h34.1c4.7,0,8.5-3.8,8.5-8.5s-3.8-8.5-8.5-8.5h-34.1c-4.7,0-8.5,3.8-8.5,8.5
		S140.4,42.7,145.1,42.7z"/>
	<path fill="#D80027" d="M204.8,42.7h8.5c4.7,0,8.5-3.8,8.5-8.5s-3.8-8.5-8.5-8.5h-8.5c-4.7,0-8.5,3.8-8.5,8.5
		S200.1,42.7,204.8,42.7z"/>
	<path fill="#D80027" d="M477.9,102.4H324.3V37.6c0-20.7-16.9-37.6-37.6-37.6h-215C51,0,34.1,16.9,34.1,37.6v436.8
		c0,20.7,16.9,37.6,37.6,37.6h214.9c20.7,0,37.6-16.9,37.6-37.6V281.6h153.6V102.4z M71.7,17.1h214.9c11.3,0,20.5,9.2,20.5,20.5
		v13.6h-256V37.6C51.2,26.3,60.4,17.1,71.7,17.1z M286.7,494.9h-215c-11.3,0-20.5-9.2-20.5-20.5v-64.8h256v64.8
		C307.2,485.7,298,494.9,286.7,494.9z M307.2,392.5h-256V68.3h256v34.1H153.6v179.2h34.1v59.7l79.6-59.7h39.8V392.5z M460.8,264.5
		H324.3h-62.6l-56.9,42.7v-42.7h-34.1V119.5h153.6h136.5V264.5z"/>
	<path fill="#D80027" d="M213.3,179.2h85.3c4.7,0,8.5-3.8,8.5-8.5c0-4.7-3.8-8.5-8.5-8.5h-85.3c-4.7,0-8.5,3.8-8.5,8.5
		C204.8,175.4,208.6,179.2,213.3,179.2z"/>
	<path fill="#D80027" d="M204.8,213.3c0,4.7,3.8,8.5,8.5,8.5h204.8c4.7,0,8.5-3.8,8.5-8.5s-3.8-8.5-8.5-8.5H213.3
		C208.6,204.8,204.8,208.6,204.8,213.3z"/>
</g>
</svg>
